 http://img801.imageshack.us/img801/8545/riseoftheplanetoftheapew.jpg


Verenigde Staten
Actie / Avontuur
105 minuten

geregisseerd door Rupert Wyatt
met James Franco, Brian Cox en Tom Felton

Het verhaal speelt zich af in het huidige San Francisco, waar de wetenschapper Will Rodman zich bezighoudt met genetische manipulatie op apen in z’n strijd tegen Alzheimer. Wanneer één van de proefdieren, Caesar, zich intellectueel snel begint te ontwikkelen, ontstaat een oorlog voor de suprematie tussen mens en aap.



Vertaald door het DRT vertaalteam:
Désirée
Sync: Opa38




Screenshots:
 
http://img341.imageshack.us/img341/6571/screenshot1dh.jpg
 
http://img847.imageshack.us/img847/6984/screenshot2oq.jpg
 
http://img805.imageshack.us/img805/8177/screenshot3z.jpg
 
http://img849.imageshack.us/img849/1799/screenshot4rp.jpg



INFO;


Format                                   : AVI
Format/Info                              : Audio Video Interleave
File size                                : 705 MiB
Duration                                 : 1h 43mn
Overall bit rate mode                    : Variable
Overall bit rate                         : 955 Kbps
Writing application                      : VirtualDubMod 1.5.10.2 (build 2542/release)
Writing library                          : VirtualDubMod build 2542/release

Video
ID                                       : 0
Format                                   : MPEG-4 Visual
Format profile                           : Advanced Simple@L5
Format settings, BVOP                    : 1
Format settings, QPel                    : No
Format settings, GMC                     : No warppoints
Format settings, Matrix                  : Default (H.263)
Muxing mode                              : Packed bitstream
Codec ID                                 : XVID
Codec ID/Hint                            : XviD
Duration                                 : 1h 43mn
Bit rate                                 : 813 Kbps
Width                                    : 672 pixels
Height                                   : 286 pixels
Display aspect ratio                     : 2.35:1
Frame rate                               : 23.976 fps
Color space                              : YUV
Chroma subsampling                       : 4:2:0
Bit depth                                : 8 bits
Scan type                                : Progressive
Compression mode                         : Lossy
Bits/(Pixel*Frame)                       : 0.176
Stream size                              : 600 MiB (85%)
Writing library                          : XviD 64

Audio
ID                                       : 1
Format                                   : MPEG Audio
Format version                           : Version 1
Format profile                           : Layer 3
Mode                                     : Joint stereo
Mode extension                           : MS Stereo
Codec ID                                 : 55
Codec ID/Hint                            : MP3
Duration                                 : 1h 43mn
Bit rate mode                            : Variable
Bit rate                                 : 128 Kbps
Channel(s)                               : 2 channels
Sampling rate                            : 44.1 KHz
Compression mode                         : Lossy
Stream size                              : 95.4 MiB (14%)
Alignment                                : Aligned on interleaves
Interleave, duration                     : 26 ms (0.63 video frame)
Interleave, preload duration             : 282 ms



 
http://www.imdb.com/title/tt1318514/ 
http://www.moviemeter.nl/film/74755




Deze film wordt u aangeboden door het DutchReleaseTeam.
Voor de reviews van de nieuwste films, muziek, series, games etc
ga dan eens naar http://www.hetmultimediacafe.be

DutchReleaseteam = Hardcoded Dutch Subs